<?xml version="1.0" encoding="UTF-8"?> <svg xmlns="http://www.w3.org/2000/svg" xmlns:xlink="http://www.w3.org/1999/xlink" id="Layer_1" data-name="Layer 1" viewBox="0 0 358 300"><defs><style>.cls-1{fill:#060547;}.cls-2{fill:url(#linear-gradient);}.cls-3{fill:url(#linear-gradient-2);}.cls-4{fill:url(#linear-gradient-3);}.cls-5{fill:url(#linear-gradient-4);}.cls-6{fill:url(#linear-gradient-5);}.cls-7{fill:url(#linear-gradient-6);}.cls-8{fill:url(#linear-gradient-7);}.cls-9{fill:url(#linear-gradient-8);}.cls-10{fill:url(#linear-gradient-9);}</style><linearGradient id="linear-gradient" x1="52.58" y1="186.2" x2="75.73" y2="118.14" gradientTransform="matrix(1, 0, 0, -1, 0, 302)" gradientUnits="userSpaceOnUse"><stop offset="0.13" stop-color="#80f777"></stop><stop offset="0.14" stop-color="#78f580"></stop><stop offset="0.21" stop-color="#59eba1"></stop><stop offset="0.28" stop-color="#41e4bc"></stop><stop offset="0.35" stop-color="#30dfcf"></stop><stop offset="0.42" stop-color="#25dcda"></stop><stop offset="0.49" stop-color="#22dbde"></stop><stop offset="0.62" stop-color="#1ec5e2"></stop><stop offset="0.89" stop-color="#138dec"></stop><stop offset="1" stop-color="#0e74f0"></stop></linearGradient><linearGradient id="linear-gradient-2" x1="53.81" y1="187" x2="76.7" y2="119.7" xlink:href="#linear-gradient"></linearGradient><linearGradient id="linear-gradient-3" x1="51.38" y1="185.24" x2="74.81" y2="116.36" xlink:href="#linear-gradient"></linearGradient><linearGradient id="linear-gradient-4" x1="44.93" y1="186.16" x2="67.94" y2="118.52" xlink:href="#linear-gradient"></linearGradient><linearGradient id="linear-gradient-5" x1="45.9" y1="187.83" x2="69.16" y2="119.45" xlink:href="#linear-gradient"></linearGradient><linearGradient id="linear-gradient-6" x1="43.94" y1="184.68" x2="66.71" y2="117.75" xlink:href="#linear-gradient"></linearGradient><linearGradient id="linear-gradient-7" x1="41.63" y1="181.15" x2="63.1" y2="118.03" xlink:href="#linear-gradient"></linearGradient><linearGradient id="linear-gradient-8" x1="49.69" y1="183.89" x2="71.16" y2="120.77" xlink:href="#linear-gradient"></linearGradient><linearGradient id="linear-gradient-9" x1="57.61" y1="186.59" x2="79.08" y2="123.47" xlink:href="#linear-gradient"></linearGradient></defs><rect class="cls-1" x="145.28" y="133.3" width="5.21" height="33.39"></rect><path class="cls-1" d="M194.86,143a9.65,9.65,0,0,0-9.65-9.64H164V166.7h21.18a9.65,9.65,0,0,0,7.36-15.89l-.7-.81.7-.81A9.15,9.15,0,0,0,194.86,143Zm-6.51,17.24a4.31,4.31,0,0,1-3.14,1.3h-16V152.6h16a4.45,4.45,0,0,1,3.14,7.59Zm0-14.09a4.33,4.33,0,0,1-3.14,1.3h-16v-8.89h16a4.45,4.45,0,0,1,3.14,7.59Z"></path><path class="cls-1" d="M236.93,143.59a10.31,10.31,0,0,0-10.29-10.28H206.1V166.7h5.21V153.89h15.33a5.09,5.09,0,0,1,5.08,5.08v7.73h5.21V159a9.77,9.77,0,0,0-2.63-6.85l-.75-.84.75-.83A9.79,9.79,0,0,0,236.93,143.59Zm-6.7,3.59a4.93,4.93,0,0,1-3.59,1.5H211.31V138.51h15.33a5.07,5.07,0,0,1,3.59,8.67Z"></path><path class="cls-1" d="M262.93,133.3a16.7,16.7,0,0,0-11.81,28.51,16.7,16.7,0,1,0,11.81-28.51Zm8.13,24.83a11.52,11.52,0,1,1,3.36-8.13A11.13,11.13,0,0,1,271.06,158.13Z"></path><path class="cls-1" d="M297.49,138.51h21.18V133.3H297.49a9.65,9.65,0,0,0,0,19.3H309a4.35,4.35,0,0,1,3.15,1.3,4.45,4.45,0,0,1-3.15,7.58H287.84v5.21H309a9.65,9.65,0,1,0,0-19.3H297.49a4.44,4.44,0,0,1-4.44-4.44,4.42,4.42,0,0,1,4.44-4.44Z"></path><path class="cls-1" d="M111.71,138.51h21.18V133.3H111.7a9.65,9.65,0,0,0,0,19.3h11.54a4.44,4.44,0,1,1,0,8.88H102.05v5.21h21.19a9.65,9.65,0,1,0,0-19.3H111.7a4.3,4.3,0,0,1-3.14-1.3,4.44,4.44,0,0,1,3.15-7.58Z"></path><path class="cls-2" d="M39.33,138.52l33.5-19.33a2.21,2.21,0,0,0,0-3.83h0a2.23,2.23,0,0,0-2.21,0l-31.29,18v5.11Z"></path><path class="cls-3" d="M39.33,141.89v5.51l40.93-23.61a2.39,2.39,0,0,0,0-4.14h0a2.42,2.42,0,0,0-2.39,0Z"></path><path class="cls-4" d="M65.42,111.09h0a2.23,2.23,0,0,0-2.26,0L39.33,124.83v5.22L65.42,115A2.25,2.25,0,0,0,65.42,111.09Z"></path><path class="cls-5" d="M50.16,184.63l31.29-18v-5.11L48,180.81a2.2,2.2,0,0,0,0,3.82h0A2.19,2.19,0,0,0,50.16,184.63Z"></path><path class="cls-6" d="M55.36,188.91h0a2.25,2.25,0,0,0,2.27,0l23.82-13.66V170L55.36,185A2.27,2.27,0,0,0,55.36,188.91Z"></path><path class="cls-7" d="M81.45,158.18v-5.5L40.52,176.22a2.38,2.38,0,0,0,0,4.12h0a2.36,2.36,0,0,0,2.38,0Z"></path><polygon class="cls-8" points="60.39 161.31 65.16 158.55 45.62 147.26 40.84 150.02 60.4 161.31 60.39 161.31"></polygon><polygon class="cls-9" points="72.5 154.32 52.96 143.03 48.53 145.58 68.08 156.87 72.5 154.32"></polygon><polygon class="cls-10" points="79.94 150.02 60.39 138.74 55.88 141.34 75.42 152.63 79.94 150.02"></polygon></svg> 